<?xml version="1.0" encoding="UTF-8" standalone="no"?>
<svg
   xmlns:dc="http://purl.org/dc/elements/1.1/"
   xmlns:cc="http://creativecommons.org/ns#"
   xmlns:rdf="http://www.w3.org/1999/02/22-rdf-syntax-ns#"
   xmlns:svg="http://www.w3.org/2000/svg"
   xmlns="http://www.w3.org/2000/svg"
   viewBox="0 0 405.3735 500.9166"
   height="500.9166"
   width="405.3735"
   id="svg2"
   version="1.1">
  <metadata
     id="metadata8">
    <rdf:RDF>
      <cc:Work
         rdf:about="">
        <dc:format>image/svg+xml</dc:format>
        <dc:type
           rdf:resource="http://purl.org/dc/dcmitype/StillImage" />
        <dc:title></dc:title>
      </cc:Work>
    </rdf:RDF>
  </metadata>
  <defs
     id="defs6" />
  <path
     id="path12"
     d="m 8.2003889,500.591 c -3.60307,-0.71013 -7.17707,-5.11325 -7.83099999,-9.64769 -0.3301,-2.28891 -0.46421,-32.96166 -0.29803,-68.16166 0.32256,-68.32304 0.16803,-66.25482 5.20021999,-69.60193 1.74098,-1.15799 14.3370201,-1.44541 73.3519261,-1.67376 l 71.249995,-0.27569 v -31.97431 -31.97431 h -39.36514 c -38.142735,0 -39.445885,-0.0635 -41.965555,-2.04549 -1.43022,-1.12501 -3.0634,-3.71251 -3.62928,-5.75 -1.44038,-5.18619 -1.41487,-192.314472 0.0269,-197.506537 0.70944,-2.554774 2.10182,-4.439823 4.24443,-5.746262 3.06403,-1.868272 5.52338,-1.94439 62.938625,-1.947982 l 59.75002,-0.0037 V 41.68277 c 0,-35.3674018 0.3092,-37.6230948 5.54092,-40.4230308 3.07677,-1.64663602 7.77263,-1.68343202 10.7606,-0.08432 5.10814,2.733789 5.1774,3.229579 5.4979,39.3562208 l 0.29942,33.75 59.70058,0.0037 c 57.3663,0.0036 59.82525,0.07976 62.88921,1.947982 2.14261,1.306439 3.53499,3.191488 4.24443,5.746262 1.44179,5.192065 1.4673,192.320346 0.0269,197.506536 -0.56588,2.03749 -2.19906,4.62499 -3.62928,5.75 -2.51965,1.98201 -3.8228,2.04553 -41.96554,2.04553 H 255.8735 v 31.97431 31.97431 l 71.4812,0.27569 71.4812,0.27569 3.2688,3.26923 3.2688,3.26923 v 67.96154 67.96154 l -3.26916,3.26923 -3.26916,3.26923 -194.23084,0.11882 C 97.777385,500.96587 9.3956089,500.82657 8.2003889,500.591 Z M 63.873505,447.24953 c 0,-34.35968 0.33323,-36.98659 5.11687,-40.33719 1.28048,-0.89688 3.92789,-1.63069 5.88313,-1.63069 1.95524,0 4.60265,0.73381 5.88313,1.63069 4.78364,3.3506 5.11687,5.97751 5.11687,40.33719 v 32.03212 h 116.999995 117 v -32.03212 c 0,-34.35968 0.33323,-36.98659 5.11687,-40.33719 1.28048,-0.89688 3.92789,-1.63069 5.88313,-1.63069 1.95524,0 4.60265,0.73381 5.88313,1.63069 4.78364,3.3506 5.11687,5.97751 5.11687,40.33719 v 32.03212 h 21 21 v -53 -53 h -181 -180.999991 v 53 53 h 20.999996 21 z M 234.8735,319.28165 v -32 h -32 -32 v 32 32 h 32 32 z m 85,-138.5 V 95.281645 h -117 -116.999995 v 85.500005 85.5 h 116.999995 117 z M 114.08541,244.153 c -2.01495,-0.58111 -4.04628,-2.19177 -5.24626,-4.15981 -1.79939,-2.95112 -1.95848,-5.14518 -1.96191,-27.05725 -0.004,-25.86813 0.42419,-28.16134 5.70858,-30.56908 1.65525,-0.75418 29.39374,-1.08521 90.93473,-1.08521 h 88.55295 l 3.4,3.4 3.4,3.4 -0.004,24.35 c -0.003,22.35338 -0.16316,24.61146 -1.94798,27.53863 -1.30644,2.14261 -3.19149,3.53499 -5.74626,4.24443 -4.91212,1.36405 -172.34866,1.30571 -177.09011,-0.0617 z M 277.8735,212.78165 v -10.5 h -75 -75 v 10.5 10.5 h 75 75 z M 141.90338,158.16906 c -17.42264,-6.95332 -17.93458,-32.17971 -0.79835,-39.33968 7.50946,-3.13765 17.15093,-1.36499 23.14457,4.25532 13.71545,12.86114 4.22991,36.35903 -14.58626,36.13356 -2.90941,-0.0349 -6.40139,-0.507 -7.75996,-1.0492 z m 104.87045,-0.87837 c -12.36038,-6.53296 -15.62193,-22.4229 -6.69046,-32.59529 6.17515,-7.03311 16.09469,-9.40247 24.5586,-5.86602 16.81338,7.02508 16.81338,31.87946 0,38.90454 -5.06584,2.11665 -13.41677,1.90949 -17.86814,-0.44323 z"
     style="fill:#000000" />
</svg>
