<?xml version="1.0" encoding="UTF-8" standalone="no"?>
<svg
   xmlns:dc="http://purl.org/dc/elements/1.1/"
   xmlns:cc="http://creativecommons.org/ns#"
   xmlns:rdf="http://www.w3.org/1999/02/22-rdf-syntax-ns#"
   xmlns:svg="http://www.w3.org/2000/svg"
   xmlns="http://www.w3.org/2000/svg"
   viewBox="0 0 2000 504"
   height="504"
   width="2000"
   id="svg2"
   version="1.1">
  <metadata
     id="metadata8">
    <rdf:RDF>
      <cc:Work
         rdf:about="">
        <dc:format>image/svg+xml</dc:format>
        <dc:type
           rdf:resource="http://purl.org/dc/dcmitype/StillImage" />
        <dc:title></dc:title>
      </cc:Work>
    </rdf:RDF>
  </metadata>
  <defs
     id="defs6" />
  <path
     id="path12"
     d="m 2e-4,503.23996 c 0,-0.44778 6.6375,-2.97323 14.75,-5.61213 8.1125,-2.63889 16.1,-5.36873 17.75,-6.06629 1.65,-0.69757 5.2742,-2.19663 8.0538,-3.33125 18.3349,-7.48435 35.1872,-21.94731 42.675,-36.6246 4.9042,-9.61313 7.0553,-23.49234 5.2805,-34.07083 -1.8364,-10.94594 -5.1556,-26.10848 -10.1749,-46.48077 -3.049,-12.375 -5.7392,-23.625 -5.9783,-25 -0.239,-1.375 -0.6609,-3.25155 -0.9374,-4.17011 -0.8417,-2.79586 -1.6209,-7.65995 -4.4091,-27.52144 -1.871,-13.32744 -1.249,-35.54166 1.3385,-47.80845 1.2761,-6.05 2.6244,-11.675 2.9962,-12.5 0.5598,-1.24226 -0.3997,-1.511 -5.5842,-1.564 -7.0093,-0.0717 -13.0478,-2.41931 -15.3807,-5.97971 -4.2383,-6.46851 -1.6556,-16.02243 5.6358,-20.84763 3.4579,-2.28836 4.9668,-2.60866 12.289,-2.60866 7.6107,0 8.5544,-0.22058 10.6958,-2.5 2.7049,-2.87925 4.6617,-3.12565 7.7339,-0.97384 3.4678,2.42896 14.4123,0.31812 19.5827,-3.77689 8.8418,-7.00282 16.0813,-20.37887 20.6284,-38.11387 l 2.0164,-7.86461 -4.9747,-4.4727 c -5.1128,-4.59681 -7.013,-8.70951 -6.1383,-13.28522 0.4414,-2.30915 20.6128,-23.21836 21.5219,-22.30919 0.2142,0.21419 2.151,-0.52875 4.3041,-1.65098 2.153,-1.12222 6.7071,-2.33228 10.1201,-2.68901 3.413,-0.35673 6.2055,-0.92994 6.2055,-1.2738 0,-0.34385 -2.9916,-1.40983 -6.648,-2.36883 -16.6557,-4.36846 -30.1206,-16.86688 -35.6017,-33.046494 -4.2117,-12.43234 -2.6263,-28.99629 3.8625,-40.35264 3.1198,-5.46019 3.0836,-6.5372 -0.1779,-5.29718 -4.9654,1.88785 -5.7534,1.38639 -5.1296,-3.26453 0.3635,-2.71007 1.385,-4.9008 2.8313,-6.07187 1.5935,-1.29039 1.9817,-2.22391 1.3129,-3.15723 -0.5222,-0.72882 -1.9611,-2.67716 -3.1975,-4.32964 l -2.2479,-3.00452 4.6569,1.40152 c 2.5613,0.77084 6.2215,1.40152 8.1339,1.40152 h 3.4769 l -0.6162,-4.4961 c -0.3584,-2.61485 -0.1389,-5.54394 0.5247,-7.00036 l 1.1411,-2.50425 1.8985,3.1219 c 1.7794,2.92605 2.1928,3.09208 6.5893,2.6467 2.5799,-0.26135 6.4013,-1.20269 8.4919,-2.09185 3.5041,-1.49037 3.7092,-1.79474 2.625,-3.89635 -0.6468,-1.25383 -2.0853,-3.2784203 -3.1966,-4.4990903 l -2.0206,-2.21941 2.7106,-1.03059 c 4.6683,-1.77489 6.9922,-1.16747 13.4157,3.50658 6.1894,4.5036503 8.1602,4.9026103 8.1698,1.65381 0,-1.23088 0.6655,-0.8747 2.4327,1.3090103 1.9757,2.44135 2.7538,2.80132 4.1784,1.93308 0.9628,-0.58681 2.2693,-2.6075703 2.9033,-4.4905903 1.138,-3.38013 1.1682,-3.39478 2.3686,-1.1517 1.9739,3.6881303 9.0023,8.2092103 12.762,8.2092103 3.2613,0 3.35,-0.10975 3.35,-4.14602 V 6.7620457 l 2.25,2.41975 c 1.2375,1.3308603 3.2864,3.1432103 4.5532,4.0274403 1.2668,0.88424 2.3742,2.54932 2.4609,3.7002 0.087,1.15087 0.7703,2.32761 1.5192,2.61498 1.7348,0.66572 4.8059,-0.95735 5.5677,-2.94255 0.9157,-2.38645 2.357,-1.80419 3.4754,1.40404 1.1162,3.20211 0.6079,6.47489 -1.4819,9.54069 -1.8265,2.67958 -1.7703,2.84475 1.6555,4.86842 2.6734,1.57923 3,2.29695 3,6.59316 0,6.442 -2.1442,8.42357 -5.0785,4.69326 -2.2603,-2.87349 -7.5827,-3.67376 -8.5019,-1.27832 -0.2848,0.74196 0.8064,3.77946 2.4249,6.75 10.2914,18.88945 6.7029,43.02966 -8.7258,58.699794 -8.1887,8.31685 -17.2057,13.112 -28.2367,15.01596 -2.1834,0.37687 -3.9754,1.13124 -3.9821,1.67638 -0.014,1.11572 15.7012,5.27829 24.1001,6.38365 6.5498,0.862 9.4221,2.26329 22.237,10.84864 11.446,7.66823 14.7521,10.73702 14.2691,13.24495 -0.6678,3.46741 -3.7262,8.35261 -8.2715,13.21183 l -4.5514,4.86581 1.8584,9.72698 c 3.0476,15.95122 3.063,22.10032 0.07,28.00635 -1.3986,2.76005 -4.232,6.41058 -6.2965,8.1123 -3.3654,2.77404 -12.9615,7.94615 -17.5653,9.46732 -2.0736,0.68519 -2.1315,2.12187 -0.4151,10.31084 1.7727,8.4575 2.1023,17.44193 0.6725,18.32564 -0.8037,0.49667 0.5566,5.05481 4.5087,15.10789 13.494,34.3259 20.9802,61.26283 27.902,100.39664 0.6522,3.68733 2.5102,12.78744 3.573,17.5 0.4342,1.925 1.5262,6.875 2.4267,11 0.9005,4.125 2.2604,10.2 3.022,13.5 0.7615,3.3 2.1146,9.375 3.0068,13.5 0.8921,4.125 2.0499,9.3 2.5728,11.5 0.5228,2.2 1.8999,8.18366 3.06,13.29702 2.0015,8.82165 2.3062,9.4213 5.9598,11.72767 5.3808,3.39678 8.938,9.77188 8.5407,15.30666 -0.7723,10.76042 -11.6285,16.32477 -31.9943,16.39855 -7.3493,0.0266 -9.9548,-0.37763 -13.2418,-2.05452 -10.7754,-5.49723 -12.2599,-14.49101 -3.8252,-23.1756 l 3.3995,-3.50022 -1.4223,-6.99978 c -0.7823,-3.84988 -2.3652,-12.39978 -3.5175,-18.99978 -1.1524,-6.6 -2.5701,-14.7 -3.1506,-18 -0.5805,-3.3 -1.1898,-6.9 -1.3541,-8 -0.391,-2.61889 -2.3254,-14.17552 -3.0129,-18 -0.2966,-1.65 -0.7304,-3.675 -0.9641,-4.5 -0.2336,-0.825 -0.6791,-3.075 -0.99,-5 -2.087,-12.92574 -15.8557,-57.98424 -17.2824,-56.55752 -0.2698,0.26974 0.087,4.85152 0.7922,10.18174 0.9438,7.13059 1.0573,14.47174 0.4295,27.78354 -0.9962,21.12392 -1.1057,56.10625 -0.2827,90.34314 0.6845,28.47478 0.5695,28.95484 -7.9745,33.27357 -6.8142,3.44434 -13.682,4.95477 -23.6887,5.20984 -6.7268,0.17147 -8.7624,-0.18067 -12.7905,-2.21267 -7.4409,-3.7536 -10.759,-10.78684 -8.5567,-18.13736 2.3012,-7.68081 11.4476,-12.88428 22.6473,-12.88428 3.8374,0 4.7919,-0.34253 4.8764,-1.75 1.9019,-31.676 1.6228,-38.13307 -3.5982,-83.25 -0.541,-4.675 -1.2177,-14.125 -1.5037,-21 -1.0798,-25.95515 -1.6998,-41.81915 -2.0128,-51.5 -0.1777,-5.5 -0.9011,-18.2125 -1.6075,-28.25 -1.2681,-18.02036 -1.3133,-18.25 -3.5907,-18.25 -1.7478,0 -2.5042,-0.76312 -3.1229,-3.1508 -0.6734,-2.59895 -1.5684,-3.37284 -5.1097,-4.41847 -2.3613,-0.69721 -5.1113,-2.0079 -6.111,-2.91264 -1.6919,-1.53114 -1.9112,-1.51601 -3.1689,0.2187 -3.6478,5.03165 -10.1848,6.78458 -13.1013,3.51321 -0.8581,-0.9625 -1.9457,-3.73049 -2.417,-6.15109 -1.0736,-5.51368 -4.372,-8.19721 -10.1741,-8.27728 -7.4282,-0.10252 -13.6021,5.61879 -16.5102,15.29969 -0.7405,2.46545 -5.3138,3.19214 -8.8831,1.41153 -1.6995,-0.84784 -3.2968,-1.33474 -3.5496,-1.082 -1.288,1.28805 -4.1695,14.60501 -5.2972,24.48165 -2.1566,18.88723 1.2659,45.92938 10.6398,84.0675 2.5009,10.175 5.2181,21.425 6.0382,25 0.8201,3.575 1.9099,8.3 2.4218,10.5 2.2652,9.73506 3.9804,21.65943 3.9668,27.57793 -0.054,23.48917 -15.5546,45.86083 -41.0953,59.3119 C 41.8824,491.18774 28.1892,496.5263 13.127,501.16654 3.5384,504.12052 0,504.67941 0,503.23996 Z m 168.467,-12.16481 c 16.479,-5.69641 14.7745,-16.08101 -3.2662,-19.89945 -6.533,-1.38273 -15.5252,-1.43705 -20.2577,-0.12236 -4.6355,1.28777 -8.8726,5.7914 -9.5863,10.18951 -0.4751,2.92765 -0.065,4.07435 2.5062,7.00246 1.6909,1.92583 4.551,4.00463 6.3557,4.61956 4.6277,1.57683 17.192,0.64948 24.2483,-1.78972 z m 77.7602,-2.00402 c 9.2414,-3.45906 11.9554,-8.92521 7.8083,-15.7267 -2.9878,-4.90023 -8.8678,-7.42161 -17.5166,-7.51121 -8.6677,-0.0898 -13.9311,2.06957 -20.9293,8.58657 -3.4869,3.24719 -4.5896,4.99624 -4.5896,7.27987 0,3.60756 3.1993,6.92142 8.6552,8.96514 5.381,2.01564 19.1327,1.19087 26.572,-1.59367 z m -81.0726,-233.5056 c 7.34,-0.8187 14.9174,-1.9437 16.8388,-2.5 1.9214,-0.55629 5.1839,-1.01144 7.25,-1.01144 2.7338,0 3.7566,-0.42395 3.7566,-1.55718 0,-2.26433 -3.972,-19.44282 -4.4956,-19.44282 -1.2496,0 -24.2439,5.48424 -28.3445,6.76028 -4.7233,1.46983 -5.6094,2.19326 -7.672,6.26355 -1.2825,2.53099 -3.042,5.19113 -3.9099,5.91143 -0.8679,0.7203 -1.578,2.60453 -1.578,4.18718 0,3.46872 -0.291,3.44645 18.1546,1.389 z m -40.9099,-6.95142 2.7447,-3.43992 -3.6186,-0.31005 c -3.3263,-0.28499 -3.7753,-0.71411 -5.5566,-5.31005 -2.5834,-6.66561 -4.8963,-8.9472 -8.2232,-8.11219 -3.3829,0.84906 -3.2823,2.08319 0.2904,3.56307 2.8802,1.19303 4.3035,3.37427 8.0253,12.29912 1.0895,2.6125 2.3436,4.74999 2.7871,4.74997 0.4434,-2e-5 2.0413,-1.54799 3.5509,-3.43995 z m -33.8951,-3.58501 6.1504,-6.025 -5.8515,3.025 c -3.2184,1.66374 -7.1401,3.02499 -8.7149,3.02499 -1.8073,0 -3.245,0.7133 -3.8984,1.93426 -1.727,3.22693 -1.198,4.06574 2.5644,4.06574 3.0539,0 4.5318,-0.91332 9.75,-6.02499 z m 55.4407,2.08085 c 2.8308,-2.83083 5.2139,-9.35326 5.206,-14.24868 -0.01,-4.14163 -3.4729,-8.48641 -7.3506,-9.21388 -13.3156,-2.49801 -20.0541,15.64751 -9.0308,24.3184 3.7713,2.96656 7.65,2.66952 11.1754,-0.85584 z m -76.4299,0.69414 c -0.4168,-0.6875 -2.4683,-3.90727 -4.5591,-7.15504 -4.1535,-6.45207 -4.6139,-8.98985 -2.2446,-12.37245 1.8254,-2.60608 1.3601,-2.74796 -2.4872,-0.75843 -9.4325,4.8777 -11.016,16.47848 -2.7408,20.07816 4.1601,1.8096 13.0961,1.9639 12.0317,0.20776 z m 6.3719,-2.69292 c 0.9746,-1.56067 0.9017,-2.6889 -0.371,-5.73472 -1.0596,-2.53593 -1.4002,-5.34644 -1.0284,-8.48569 l 0.556,-4.69389 -2.8474,0.99259 c -6.9581,2.4256 -7.5929,7.29588 -2.009,15.41184 3.4504,5.01499 3.9876,5.25154 5.6998,2.50987 z m 91.7677,-18.66171 c 5.5,-1.32666 12.25,-2.97416 15,-3.6611 l 5,-1.24899 0.6762,-6.49264 c 0.9455,-9.07809 1.4118,-12.42798 3.9126,-28.1087 l 2.1988,-13.78778 -2.0486,-4.79808 c -1.1268,-2.63894 -3.7199,-9.27797 -5.7625,-14.7534 -3.1215,-8.3672 -3.6276,-10.7913 -3.1731,-15.19571 l 0.5409,-5.24038 -5.1722,-1.03741 c -13.1097,-2.6295 -16.0771,-3.06832 -20.4713,-3.02729 -5.389,0.0503 -11.4537,1.97001 -14.267,4.51602 -2.5226,2.2829 -2.5066,7.46207 0.046,14.88101 6.8401,19.88112 9.7179,48.47522 6.6435,66.01124 -1.1046,6.30027 -1.0527,7.11836 0.5536,8.72457 0.9748,0.97482 2.0643,2.93568 2.4212,4.35748 0.4723,1.8819 1.0912,2.40666 2.2754,1.92917 0.8947,-0.36075 6.1266,-1.74135 11.6266,-3.06801 z m -22.2918,-7.77585 c 1.3352,-2.07826 2.2418,-12.1262 2.1762,-24.11952 -0.074,-13.54189 -0.8416,-19.12359 -2.6484,-19.25992 -0.6798,-0.0513 -2.9235,-0.41017 -4.986,-0.79751 -3.3568,-0.63041 -3.75,-0.48622 -3.75,1.37497 0,6.42061 -9.6786,30.46361 -14.9347,37.10002 -3.2707,4.12964 -3.1408,5.44186 0.4052,4.09364 1.4777,-0.56179 3.1349,-0.40978 4.7677,0.43733 4.7967,2.48859 8.2758,3.20858 13.2521,2.74249 2.7553,-0.25806 5.3284,-0.96523 5.7179,-1.5715 z m 56.8009,-2.86952 c 6.3437,-3.59913 7.8573,-4.98908 9.8836,-9.07599 l 2.3927,-4.82598 -1.685,-9.67402 c -2.1797,-12.51348 -2.9147,-14.76191 -4.6726,-14.29368 -0.7853,0.20918 -3.3409,0.80825 -5.6792,1.33127 -3.1617,0.70722 -4.3604,1.50679 -4.6769,3.11967 -0.5726,2.91719 -2.3288,12.82177 -3.5646,20.10239 -1.1849,6.98127 -1.3344,17.56634 -0.248,17.56634 0.4175,0 4.13,-1.9125 8.25,-4.25 z m 7.7068,-44.60968 c 5.4212,-2.77226 12.8,-9.55746 14.2805,-13.13153 1.6571,-4.0008 0.8885,-4.82807 -13.0493,-14.04379 -8.3058,-5.49178 -11.9709,-7.32607 -15.4139,-7.71415 -8.095,-0.91242 -9.2905,2.36479 -4.9532,13.57859 1.4191,3.66881 3.1821,8.24556 3.9178,10.17056 0.7358,1.925 2.4907,6.07981 3.8998,9.23292 2.846,6.36835 2.6572,6.33652 11.3183,1.9074 z m -65.7159,-2.55955 c 0,-1.79179 -2.6656,-12.63391 -4.5892,-18.66634 -0.8043,-2.52206 -1.6616,-5.62045 -1.9052,-6.8853 -0.2436,-1.26486 -0.6943,-2.55116 -1.0016,-2.85845 -1.0557,-1.0557 -13.504,12.21052 -13.504,14.3913 0,2.98748 6.6796,9.44696 13.0835,12.65234 6.1682,3.08743 7.9165,3.3892 7.9165,1.36645 z m 35.9441,-52.71927 c 9.2213,-3.11407 17.6917,-9.30611 22.6582,-16.563464 10.9643,-16.02193 11.9448,-31.6025 3.0615,-48.64765 -2.9979,-5.75219 -3.1079,-5.83982 -6.6062,-5.26101 -1.9567,0.32374 -5.6865,0.59356 -8.2886,0.59962 -4.1698,0.01 -4.8031,0.29879 -5.3399,2.43741 -0.3349,1.33452 -1.4685,3.20426 -2.519,4.15498 -1.824,1.65065 -1.9101,1.63142 -1.9101,-0.4264 0,-1.18524 -0.9422,-3.09716 -2.0937,-4.2487 -2.6957,-2.69566 -7.479,-1.97392 -14.2163,2.14506 -6.8472,4.1861 -9.0444,4.52711 -13.2357,2.05419 -1.9627,-1.15805 -4.5834,-2.10554 -5.8236,-2.10554 -2.6617,0 -9.8932,3.3044 -14.1307,6.45695 -3.0325,2.2561 -5.5082,2.35066 -5.4902,0.20972 0.01,-0.64167 1.1096,-3.52917 2.454,-6.41667 3.1898,-6.85144 1.8219,-6.75465 -2.145,0.15178 -3.4194,5.95324 -6.3188,16.09322 -6.3188,22.09822 0,5.93501 2.9019,16.42821 6.1229,22.14047 10.6431,18.875044 33.7683,27.993004 53.8212,21.221034 z m -25.5244,-8.90185 c -6.7679,-2.14602 -12.777,-7.177284 -15.0394,-12.591944 -2.5017,-5.98731 -1.4152,-5.97337 1.9219,0.0247 4.4168,7.938694 10.9029,11.607644 20.5204,11.607644 11.0185,0 18.1661,-5.11581 20.7992,-14.886754 0.9674,-3.58988 1.2582,-3.99583 1.3107,-1.83 0.082,3.39668 -3.8819,11.436634 -7.0835,14.366024 -2.581,2.36156 -10.6468,5.38299 -14.134,5.29456 -1.2182,-0.0309 -4.9511,-0.92377 -8.2953,-1.98418 z m -9.9685,-30.606854 c -5.1273,-5.53242 -5.5122,-15.48079 -0.626,-16.17956 2.9703,-0.42478 5.0644,1.38734 7.3113,6.32676 4.417,9.70994 -0.3317,16.70848 -6.6853,9.8528 z m 19.2155,0.98054 c -1.2328,-1.23275 -0.6807,-10.40559 0.7984,-13.26583 3.4244,-6.62203 11.384,-3.68718 10.1767,3.75235 -1.0659,6.56818 -7.9517,12.53694 -10.9751,9.51348 z m -26.8536,-27.83334 c 6.2712,-3.14986 13.786,-3.38978 17.3896,-0.55519 l 2.4724,1.94482 6.3538,-3.90737 c 7.9217,-4.87167 10.7522,-5.51837 15.4896,-3.53896 2.0492,0.85619 3.9044,1.5567 4.1227,1.5567 0.7345,0 -0.8664,-5.47955 -2.249,-7.69785 -0.9465,-1.51854 -1.0374,-2.4034 -0.294,-2.86287 1.4492,-0.89565 3.1724,0.96968 4.4847,4.8548 0.8043,2.38086 1.7693,3.28736 3.75,3.52234 1.4669,0.17404 2.6671,-0.14184 2.6671,-0.70195 0,-0.94945 8.1717,-7.11447 9.4302,-7.11447 1.9448,0 -0.1143,2.3166 -4.1735,4.69545 -3.3977,1.99118 -4.2382,2.87701 -2.9629,3.12261 0.9792,0.18858 4.0319,-1.102 6.7839,-2.86794 4.4187,-2.83545 5.5466,-3.13639 9.648,-2.57423 2.5544,0.35012 5.6942,1.32446 6.9773,2.1652 2.1203,1.38927 2.3922,1.37434 2.9825,-0.16382 0.6338,-1.65166 -0.7878,-3.20515 -6.8747,-7.51247 l -2.3108,-1.63521 2.6404,-2.64151 c 1.4521,-1.45284 2.8842,-3.574 3.1822,-4.71371 0.4622,-1.76758 0.2211,-1.96261 -1.6404,-1.32673 -5.8731,2.00628 -12.3141,0.12359 -9.8275,-2.87258 0.9091,-1.0954 0.8286,-1.69301 -0.3611,-2.68039 -1.2542,-1.04085 -1.8585,-0.97441 -3.3411,0.36732 -3.3123,2.9976 -11.1115,1.50217 -16.413,-3.14705 -1.601,-1.404 -1.9692,-1.34778 -4.0644,0.62059 -2.4376,2.28994 -6.1239,2.8653 -7.2002,1.1238 -0.3538,-0.57238 -1.4884,-0.77245 -2.5213,-0.44461 -2.1808,0.69216 -4.7412,-0.52889 -10.8474,-5.1729803 -2.4166,-1.83796 -5.1806,-3.34174 -6.1422,-3.34174 -1.6387,0 -1.6297,0.23286 0.1438,3.71144 1.0407,2.0413003 1.8922,4.4370703 1.8922,5.3239503 0,2.2986 -13.4906,6.4304 -18.7099,5.73034 -3.8743,-0.51964 -3.9044,-0.49775 -3.4618,2.51797 0.5463,3.7221 -1.7361,5.7163 -6.5425,5.7163 -3.2486,0 -3.2942,0.0576 -1.8223,2.30397 1.4493,2.21185 1.374,2.353 -1.8816,3.53024 -2.8261,1.02194 -5.3777,3.77505 -4.3554,4.69938 0.1504,0.13603 2.6659,0.0115 5.5899,-0.27674 3.7649,-0.37113 5.0052,-0.83527 4.25,-1.59046 -1.6224,-1.62243 -1.28,-2.66639 0.8746,-2.66639 2.3125,0 3.6012,1.63143 1.8152,2.29817 -0.8617,0.32172 -0.7113,0.69436 0.479,1.18673 1.1607,0.4801 2.7589,-0.14357 4.8268,-1.88358 1.7615,-1.48225 4.3288,-2.60132 5.9677,-2.60132 3.1624,0 7.9703,1.87092 7.9703,3.1015 0,1.46057 -2.1702,2.12829 -3.2871,1.01137 -2.0606,-2.06059 -6.6777,-1.25346 -9.365,1.63713 -2.4092,2.59131 -7.8865,12.25 -6.9469,12.25 0.2391,0 2.6745,-1.125 5.4121,-2.5 z m 52.9849,-12.46862 c 2.2539,-1.63274 4.6079,-3.92128 5.231,-5.08564 0.6232,-1.16437 1.3825,-1.86753 1.6875,-1.56259 0.9673,0.96734 -2.7036,5.63822 -6.0208,7.66086 -4.9038,2.98998 -5.4979,2.31974 -0.8977,-1.01263 z m -25.8452,-2.77641 c 1.6697,-1.47165 3.7529,-2.21594 6.0472,-2.16058 3.4167,0.0824 3.3862,0.11575 -1.2828,1.39978 -2.6305,0.72343 -5.3517,1.69569 -6.0472,2.16058 -0.6954,0.46489 -0.1182,-0.16501 1.2828,-1.39978 z m -28.5117,-1.80675 c -1.8655,-1.49132 -1.8437,-1.5259 0.5589,-0.8876 3.0853,0.81968 5.005,2.43938 2.8911,2.43938 -0.8298,0 -2.3824,-0.6983 -3.45,-1.55178 z m 18.7879,-4.87667 c 1.2361,-1.88565 2.4091,-3.26681 2.6066,-3.06923 0.5532,0.55317 -3.1615,6.49768 -4.0604,6.49768 -0.4365,0 0.2177,-1.5428 1.4538,-3.42845 z m 6.8127,-0.49357 c -0.5657,-1.05711 -1.7427,-2.63613 -2.6155,-3.50893 -0.8728,-0.8728 -1.4137,-2.10659 -1.202,-2.74175 0.2118,-0.63517 1.3577,0.49385 2.5467,2.50892 2.8945,4.90581 5.7372,4.78483 13.3262,-0.56712 4.7565,-3.35432 6.1773,-3.94316 6.8578,-2.84209 0.5041,0.81572 0.3899,2.41699 -0.2769,3.88042 -1.1112,2.43886 -1.1463,2.44596 -1.6566,0.33563 -0.5054,-2.08973 -0.6727,-2.04824 -5.4474,1.35049 -5.5522,3.95216 -9.9423,4.55532 -11.5323,1.58443 z M 1582.3271,501.36344 c -3.6031,-0.71013 -7.1771,-5.11325 -7.831,-9.64769 -0.3301,-2.28891 -0.4642,-32.96166 -0.298,-68.16166 0.3225,-68.32304 0.168,-66.25482 5.2002,-69.60193 1.741,-1.15799 14.337,-1.44541 73.3519,-1.67376 l 71.25,-0.27569 V 320.0284 288.05409 h -39.3651 c -38.1428,0 -39.4459,-0.0635 -41.9656,-2.04549 -1.4302,-1.12501 -3.0634,-3.71251 -3.6293,-5.75 -1.4404,-5.18619 -1.4149,-192.314464 0.027,-197.506534 0.7095,-2.55477 2.1019,-4.43982 4.2445,-5.74626 3.064,-1.86827 5.5233,-1.94439 62.9386,-1.94798 l 59.7499,-0.004 v -32.59887 c 0,-35.3674003 0.3092,-37.6230903 5.5409,-40.4230303 3.0768,-1.64664 7.7727,-1.68343 10.7606,-0.0843 5.1082,2.73379 5.1774,3.22958 5.4979,39.3562203 l 0.2994,33.75 59.7006,0.004 c 57.3663,0.004 59.8253,0.0798 62.8892,1.94798 2.1426,1.30644 3.535,3.19149 4.2445,5.74627 1.4418,5.19206 1.4673,192.320334 0.027,197.506524 -0.5659,2.03749 -2.1991,4.62499 -3.6293,5.75 -2.5197,1.98197 -3.8228,2.04549 -41.9656,2.04549 h -39.3651 v 31.97431 31.97431 l 71.4812,0.27569 71.4812,0.27569 3.2688,3.26923 3.2688,3.26923 v 67.96154 67.96154 l -3.2692,3.26923 -3.2691,3.26923 -194.2309,0.11882 c -106.8269,0.0653 -195.2087,-0.0739 -196.4039,-0.30947 z m 55.6731,-53.34147 c 0,-34.35968 0.3332,-36.98659 5.1169,-40.33719 1.2804,-0.89688 3.9279,-1.63069 5.8831,-1.63069 1.9552,0 4.6027,0.73381 5.8831,1.63069 4.7837,3.3506 5.1169,5.97751 5.1169,40.33719 v 32.03212 h 117 117 v -32.03212 c 0,-34.35968 0.3332,-36.98659 5.1169,-40.33719 1.2804,-0.89688 3.9279,-1.63069 5.8831,-1.63069 1.9552,0 4.6027,0.73381 5.8831,1.63069 4.7837,3.3506 5.1169,5.97751 5.1169,40.33719 v 32.03212 h 21 21 v -53 -53 h -181 -181 v 53 53 h 21 21 z m 171,-127.96788 v -32 h -32 -32 v 32 32 h 32 32 z m 85,-138.5 V 96.054086 h -117 -117 v 85.500004 85.5 h 117 117 z m -205.7881,63.37135 c -2.0149,-0.58111 -4.0463,-2.19177 -5.2463,-4.15981 -1.7993,-2.95112 -1.9584,-5.14518 -1.9619,-27.05725 0,-25.86813 0.4242,-28.16134 5.7086,-30.56908 1.6553,-0.75418 29.3938,-1.08521 90.9348,-1.08521 h 88.5529 l 3.4,3.4 3.4,3.4 v 24.35 c 0,22.35338 -0.1632,24.61146 -1.948,27.53863 -1.3065,2.14261 -3.1915,3.53499 -5.7463,4.24443 -4.9121,1.36405 -172.3486,1.30571 -177.0901,-0.0617 z m 163.7881,-31.37135 v -10.5 h -75 -75 v 10.5 10.5 h 75 75 z M 1716.0301,158.9415 c -17.4227,-6.95332 -17.9346,-32.17971 -0.7984,-39.33968 7.5095,-3.13765 17.151,-1.36499 23.1446,4.25532 13.7155,12.86114 4.2299,36.35903 -14.5863,36.13356 -2.9094,-0.0349 -6.4014,-0.507 -7.7599,-1.0492 z m 104.8704,-0.87837 c -15.6899,-8.29278 -15.5672,-30.0164 0.2152,-38.06795 7.0041,-3.57323 17.9496,-2.0242 23.7182,3.35664 10.9514,10.21536 7.6364,29.42963 -6.0652,35.15454 -5.0659,2.11665 -13.4168,1.90949 -17.8682,-0.44323 z"
     style="fill:#ffffff" />
</svg>
